<svg width="24" height="24" viewBox="0 0 24 24" fill="none" xmlns="http://www.w3.org/2000/svg">
<path fill-rule="evenodd" clip-rule="evenodd" d="M11.535 3.41446C11.6097 3.25044 11.6387 3.06929 11.6189 2.89015C11.5991 2.71102 11.5312 2.54057 11.4225 2.39682C11.3138 2.25307 11.1683 2.14138 11.0013 2.07354C10.8344 2.00571 10.6522 1.98425 10.474 2.01146C5.675 2.74746 2 6.89146 2 11.8955C2 17.4185 6.477 21.8955 12 21.8955C17.523 21.8955 22 17.4185 22 11.8955C21.9999 11.8021 21.9986 11.7088 21.996 11.6155C21.991 11.4352 21.9373 11.2596 21.8407 11.1073C21.7441 10.955 21.608 10.8317 21.447 10.7504C21.286 10.6691 21.106 10.6329 20.9261 10.6456C20.7462 10.6583 20.573 10.7194 20.425 10.8225C19.3461 11.5738 18.0503 11.95 16.7367 11.8932C15.4232 11.8364 14.1647 11.3497 13.1547 10.508C12.1447 9.66624 11.4392 8.51607 11.1466 7.2343C10.8539 5.95252 10.9904 4.61011 11.535 3.41346" fill="#004182"/>
</svg>
